<svg width="36" height="36" viewBox="0 0 36 36" fill="none" xmlns="http://www.w3.org/2000/svg">
<path d="M18 2.17969C8.11336 2.17969 0 10.2227 0 20.1094V28.5469C0 30.2916 1.41933 31.7109 3.16406 31.7109H4.21875V21.1641H3.16406C2.79253 21.1641 2.4409 21.2401 2.10938 21.3583V20.1094C2.10938 11.3856 9.27619 4.28906 18 4.28906C26.7238 4.28906 33.8906 11.3856 33.8906 20.1094V21.3583C33.5591 21.2401 33.2075 21.1641 32.8359 21.1641H31.7812V31.7109H32.8359C34.5807 31.7109 36 30.2916 36 28.5469V20.1094C36 10.2227 27.8866 2.17969 18 2.17969Z" fill="white"/>
<path d="M9.49219 19.0547H8.4375C7.27249 19.0547 6.32812 19.9991 6.32812 21.1641V31.7109C6.32812 32.8759 7.27249 33.8203 8.4375 33.8203H9.49219C10.0747 33.8203 10.5469 33.3481 10.5469 32.7656V20.1094C10.5469 19.5269 10.0747 19.0547 9.49219 19.0547Z" fill="white"/>
<path d="M27.5625 19.0547H26.5078C25.9253 19.0547 25.4531 19.5269 25.4531 20.1094V32.7656C25.4531 33.3481 25.9253 33.8203 26.5078 33.8203H27.5625C28.7275 33.8203 29.6719 32.8759 29.6719 31.7109V21.1641C29.6719 19.9991 28.7275 19.0547 27.5625 19.0547Z" fill="white"/>
</svg>
