<svg width="304" height="111" viewBox="0 0 304 111" fill="none" xmlns="http://www.w3.org/2000/svg">
<path d="M21.3867 51.0234V66.4731L32.0349 75.9704L32.0514 61.7244L21.3867 51.0234Z" fill="#352B65"/>
<path d="M79.3445 61.7244H58.0645V83.0933L79.3445 61.7244Z" fill="#352B65"/>
<path d="M76.9613 39.2012H56.8809V59.35L76.9613 39.2012Z" fill="#FFE4B8"/>
<path d="M79.3686 36.8186L69.3037 26.7195L59.2471 36.8186H79.3686Z" fill="#35BDB2"/>
<path d="M58.0645 61.7244H79.3445V40.3884L58.0645 61.7244Z" fill="#739DD2"/>
<path d="M55.6976 84.2805H45.0576V51.0481L55.6976 61.7243V84.2805Z" fill="#F26530"/>
<path d="M34.418 84.2805H45.058V51.0481L34.418 61.7243V84.2805Z" fill="#BF3019"/>
<path d="M56.8808 39.2012L46.8652 49.2426L56.8808 59.35V39.2012Z" fill="#352B65"/>
<path d="M32.8817 60.5289L23.4248 49.8197L28.4778 48.4512L32.8817 60.5289Z" fill="#35BDB2"/>
<path d="M33.2351 56.9346L30.8359 43.8757H41.4184L33.2351 56.9346Z" fill="#739DD2"/>
<path d="M104.889 46.7611H103.237C102.588 46.7611 101.89 46.7693 101.134 46.7941C100.378 46.8106 99.5974 46.8353 98.7922 46.8518C97.987 46.8683 97.2147 46.893 96.467 46.9095C95.7193 46.926 95.0374 46.9507 94.4047 46.9672C93.7803 46.9919 93.2545 47.0084 92.8436 47.0249C92.6054 47.0414 92.3014 47.0661 91.9152 47.0991C91.529 47.1321 91.1347 47.1651 90.7239 47.198C90.313 47.2393 89.9187 47.2805 89.5489 47.3135C89.1792 47.3547 88.867 47.3877 88.6369 47.4289L87.5195 45.0051C87.7742 45.0628 88.0947 45.1205 88.489 45.1782C88.8834 45.2359 89.2778 45.2854 89.6968 45.3266C90.1076 45.3678 90.5102 45.4008 90.9046 45.4338C91.299 45.4668 91.6276 45.475 91.907 45.475C92.5725 45.475 93.4599 45.4585 94.569 45.4338C95.6782 45.4008 96.8614 45.3513 98.1349 45.2854C99.4002 45.2194 100.665 45.1205 101.931 45.0051C103.196 44.8897 104.313 44.7413 105.275 44.5599L104.897 46.7446L104.889 46.7611ZM102.826 52.9937C102.826 53.645 102.67 54.2633 102.358 54.8569C102.046 55.4505 101.61 55.9616 101.043 56.3903C100.485 56.8273 99.8356 57.1653 99.088 57.4209C98.3403 57.6764 97.5269 57.8083 96.6477 57.8083C95.7686 57.8083 94.9799 57.6764 94.2322 57.4209C93.4845 57.1653 92.8354 56.8108 92.2767 56.3738C91.718 55.9287 91.2826 55.4175 90.9703 54.8404C90.6581 54.2633 90.502 53.645 90.502 52.9937C90.502 52.2847 90.6663 51.6417 90.9868 51.0563C91.3072 50.471 91.7427 49.9681 92.3014 49.5312C92.8519 49.1025 93.5009 48.7644 94.2404 48.5254C94.9881 48.2863 95.7933 48.1709 96.656 48.1709C97.5187 48.1709 98.3978 48.3028 99.1619 48.5666C99.926 48.8304 100.583 49.1849 101.117 49.6301C101.66 50.0753 102.079 50.5864 102.383 51.1635C102.687 51.7488 102.843 52.3507 102.843 52.9855L102.826 52.9937ZM100.534 43.3892H99.4413C99.0469 43.3892 98.6525 43.3892 98.2663 43.4057C97.872 43.414 97.494 43.4222 97.1325 43.4387C96.771 43.4469 96.4588 43.4552 96.2041 43.4552C96.0644 43.4552 95.8672 43.4552 95.6125 43.4717C95.3578 43.4799 95.0702 43.5046 94.758 43.5294C94.4458 43.5623 94.1336 43.5871 93.8132 43.6201C93.5009 43.653 93.2134 43.686 92.9587 43.719L91.7509 41.5013C91.9892 41.559 92.2849 41.6167 92.63 41.6662C92.9833 41.7156 93.353 41.7651 93.731 41.8146C94.1089 41.864 94.4869 41.9053 94.8484 41.93C95.2099 41.963 95.5221 41.9712 95.7768 41.9712C96.0151 41.9712 96.3355 41.963 96.7463 41.9382C97.1572 41.9217 97.6008 41.8805 98.0856 41.8393C98.5621 41.7898 99.0551 41.7404 99.5563 41.6909C100.057 41.6414 100.534 41.592 100.986 41.526L100.518 43.3892H100.534ZM111.453 66.877C110.237 66.8605 109.005 66.844 107.756 66.844C106.507 66.844 105.291 66.8522 104.108 66.877C102.917 66.8935 101.791 66.9264 100.723 66.9677C99.6549 67.0089 98.6772 67.0583 97.798 67.116C97.1079 67.1573 96.6149 67.0171 96.3109 66.7038C96.0069 66.3906 95.859 66.0113 95.859 65.5826V62.5075C95.859 62.0788 95.8343 61.7243 95.8015 61.477C95.7604 61.2214 95.6536 60.9988 95.481 60.8257C95.3003 60.6526 95.0456 60.4959 94.7005 60.364C94.3554 60.2404 93.8871 60.092 93.3037 59.9353L93.8296 58.8389C94.1007 58.8801 94.4622 58.9296 94.9059 58.9873C95.3496 59.045 95.8097 59.1109 96.2862 59.1769C96.7628 59.2428 97.2393 59.3088 97.6994 59.3665C98.1595 59.4242 98.5375 59.4737 98.8333 59.5149C98.7922 59.754 98.7511 60.1085 98.7182 60.5784C98.6772 61.0566 98.6607 61.4688 98.6607 61.8233V64.6263C98.6607 65.0055 98.7182 65.2281 98.8415 65.3188C98.9565 65.4095 99.2359 65.459 99.6631 65.4837C100.411 65.5084 101.306 65.4837 102.342 65.4425C103.385 65.393 104.461 65.3271 105.595 65.2364C106.721 65.1457 107.838 65.0467 108.939 64.9231C110.04 64.8077 111.01 64.684 111.856 64.5686L111.47 66.8687L111.453 66.877ZM93.4352 52.8783C93.4352 53.3482 93.5174 53.7852 93.6817 54.1891C93.846 54.5931 94.0761 54.9558 94.3719 55.2691C94.6676 55.5824 95.0127 55.8297 95.3989 56.0111C95.7933 56.1842 96.2123 56.2749 96.6642 56.2749C97.1161 56.2749 97.5105 56.1842 97.8966 56.0111C98.291 55.838 98.6279 55.5906 98.9236 55.2856C99.2194 54.9806 99.4495 54.6178 99.6302 54.2056C99.8028 53.7934 99.8932 53.3482 99.8932 52.8783C99.8932 52.4414 99.811 52.0209 99.6467 51.6087C99.4823 51.1965 99.2523 50.8337 98.9565 50.5287C98.6607 50.2237 98.3156 49.9763 97.9295 49.7867C97.5351 49.5971 97.1161 49.5064 96.6642 49.5064C96.2123 49.5064 95.7933 49.5889 95.3989 49.7537C95.0045 49.9186 94.6594 50.1577 94.3719 50.4463C94.0761 50.743 93.846 51.0976 93.6817 51.5098C93.5174 51.922 93.4352 52.3754 93.4352 52.8701V52.8783ZM109.597 55.2444C109.597 55.6978 109.58 56.176 109.555 56.6954C109.523 57.2065 109.49 57.7259 109.449 58.2453C109.408 58.7647 109.366 59.2593 109.317 59.721C109.268 60.1827 109.219 60.5784 109.153 60.9164L107.066 61.2379C107.025 60.9988 107 60.6773 106.976 60.2651C106.959 59.8529 106.934 59.3995 106.902 58.9213C106.869 58.4431 106.852 57.9567 106.844 57.4786C106.836 56.9922 106.828 56.5799 106.828 56.2254V43.0842C106.828 42.4741 106.548 41.9795 105.99 41.592C105.431 41.2045 104.502 40.8582 103.204 40.545L103.673 39.4485C104.166 39.5062 104.691 39.5804 105.258 39.6711C105.825 39.7618 106.4 39.8607 106.967 39.9679C107.534 40.075 108.085 40.1822 108.602 40.2729C109.12 40.3718 109.572 40.4543 109.942 40.512C109.901 40.6851 109.859 40.9077 109.81 41.1633C109.761 41.4189 109.72 41.6827 109.695 41.9465C109.662 42.2103 109.638 42.4576 109.621 42.672C109.605 42.8863 109.588 43.043 109.588 43.1419V50.6111C110.435 50.5534 111.388 50.4627 112.439 50.3308C113.499 50.2072 114.469 50.0588 115.356 49.9021L115.093 52.2353H109.588V55.2526L109.597 55.2444Z" fill="#404041"/>
<path d="M135.321 50.8089C135.477 50.1989 135.616 49.5558 135.748 48.8715C135.879 48.1873 135.994 47.5113 136.101 46.8352C136.208 46.1592 136.29 45.4914 136.348 44.8401C136.405 44.1888 136.446 43.5705 136.463 42.9769C135.74 42.9769 134.967 42.9769 134.154 42.9934C133.341 43.0017 132.527 43.0182 131.722 43.0346C130.917 43.0511 130.144 43.0759 129.397 43.1088C128.649 43.1336 127.975 43.1748 127.367 43.2078C127.072 43.2243 126.718 43.249 126.291 43.282C125.872 43.3149 125.42 43.3479 124.952 43.3974C124.483 43.4469 124.007 43.5046 123.539 43.5788C123.07 43.6447 122.635 43.7189 122.24 43.8014L120.942 41.3776C121.312 41.4188 121.731 41.46 122.175 41.5095C122.627 41.5589 123.078 41.6002 123.53 41.6249C123.982 41.6579 124.409 41.6826 124.829 41.6991C125.239 41.7156 125.601 41.7321 125.921 41.7321C126.965 41.7321 128.074 41.7156 129.249 41.6908C130.424 41.6579 131.607 41.6166 132.782 41.5589C133.957 41.5012 135.099 41.4188 136.2 41.3198C137.301 41.2209 138.287 41.0973 139.174 40.9324L139.971 41.6991C139.831 42.3916 139.683 43.1088 139.527 43.8673C139.371 44.6258 139.199 45.4007 139.01 46.1839C138.821 46.9671 138.615 47.7503 138.394 48.517C138.172 49.2838 137.917 50.0175 137.646 50.7018C138.878 50.6193 140.111 50.5286 141.327 50.4215C142.543 50.3143 143.652 50.1824 144.654 50.0257L144.268 52.4166C143.874 52.4001 143.422 52.3753 142.896 52.3588C142.378 52.3424 141.811 52.3259 141.203 52.3176C140.595 52.3094 139.971 52.2929 139.322 52.2764C138.673 52.2599 138.024 52.2434 137.383 52.2434C136.832 52.2434 136.134 52.2434 135.296 52.2599C134.45 52.2682 133.521 52.2929 132.502 52.3341V54.2962C132.502 54.8321 132.486 55.3927 132.445 55.9863C132.404 56.5799 132.355 57.1075 132.297 57.5609C133.653 57.4867 134.934 57.4125 136.134 57.3383C137.342 57.2724 138.328 57.1899 139.092 57.091C139.034 57.6022 138.993 58.0061 138.96 58.2864C138.928 58.5667 138.919 58.88 138.919 59.218V63.4391C138.919 64.0079 138.886 64.6839 138.821 65.4506C138.747 66.2174 138.632 66.9346 138.451 67.6106L136.389 67.9981C136.348 67.759 136.315 67.4787 136.29 67.1407C136.257 66.8027 136.233 66.4564 136.216 66.0937C136.2 65.7309 136.175 65.3764 136.159 65.0302C136.134 64.6839 136.126 64.3871 136.126 64.1316V58.9295C135.362 58.8883 134.532 58.88 133.653 58.8965C132.774 58.913 131.87 58.9542 130.958 58.9954C130.046 59.0449 129.15 59.1026 128.263 59.1603C127.384 59.218 126.554 59.2757 125.79 59.3334C125.165 59.3747 124.557 59.4324 123.966 59.5066C123.374 59.589 122.758 59.6715 122.109 59.7704L120.992 57.4373C121.263 57.4785 121.583 57.5197 121.936 57.5527C122.29 57.5939 122.651 57.6269 123.013 57.6599C123.374 57.6846 123.736 57.7093 124.089 57.7341C124.442 57.7506 124.771 57.767 125.059 57.767C126.431 57.767 127.992 57.7341 129.742 57.6764C129.725 57.2064 129.701 56.6953 129.684 56.1429C129.668 55.5906 129.651 55.1206 129.651 54.7249V52.4248C128.863 52.4413 128.099 52.466 127.359 52.499C126.611 52.532 125.913 52.5567 125.264 52.5732C124.615 52.5897 124.04 52.6144 123.53 52.6474C123.021 52.6804 122.618 52.7051 122.323 52.7216C121.6 52.7628 120.803 52.8205 119.94 52.903C119.077 52.9772 118.305 53.0678 117.615 53.1668L116.612 50.5946C117.5 50.6935 118.445 50.776 119.455 50.8502C120.466 50.9161 121.411 50.9738 122.298 51.015C122.906 51.0315 123.76 51.0398 124.861 51.0315C125.962 51.0315 127.129 51.0068 128.378 50.9903C129.627 50.9738 130.867 50.9491 132.1 50.9161C133.341 50.8831 134.417 50.8502 135.337 50.8172L135.321 50.8089Z" fill="#404041"/>
<path d="M164.086 52.8783C164.258 52.1693 164.431 51.3944 164.587 50.5452C164.743 49.6961 164.883 48.8551 164.998 48.006C165.113 47.1568 165.211 46.3407 165.277 45.5575C165.343 44.766 165.392 44.057 165.408 43.4305C164.685 43.4305 163.913 43.4305 163.1 43.4469C162.286 43.4552 161.473 43.4799 160.668 43.5047C159.862 43.5294 159.09 43.5624 158.342 43.5953C157.595 43.6283 156.921 43.6613 156.313 43.6943C156.017 43.7108 155.664 43.7355 155.237 43.7685C154.809 43.8014 154.366 43.8344 153.897 43.8839C153.429 43.9334 152.953 43.9911 152.484 44.057C152.016 44.123 151.581 44.1972 151.186 44.2796L149.888 41.8558C150.258 41.897 150.677 41.9383 151.12 41.9877C151.572 42.0372 152.024 42.0784 152.476 42.1031C152.928 42.1361 153.363 42.1608 153.774 42.1773C154.185 42.1938 154.547 42.2103 154.867 42.2103C155.91 42.2103 157.02 42.1938 158.195 42.1691C159.369 42.1361 160.553 42.0949 161.728 42.0372C162.902 41.9795 164.045 41.897 165.145 41.7981C166.246 41.6992 167.232 41.5838 168.12 41.4436L168.917 42.1856C168.777 42.9111 168.621 43.719 168.432 44.6094C168.243 45.4998 168.038 46.4066 167.816 47.3465C167.586 48.2863 167.339 49.2179 167.068 50.1495C166.797 51.0811 166.501 51.9715 166.181 52.7959C167.479 52.7217 168.769 52.6227 170.067 52.4991C171.365 52.3754 172.54 52.2518 173.6 52.1116L173.222 54.5024C172.828 54.4859 172.376 54.4612 171.85 54.4447C171.332 54.4282 170.765 54.4117 170.157 54.4035C169.549 54.3952 168.917 54.3788 168.276 54.3623C167.627 54.3458 166.978 54.3293 166.329 54.3293C165.778 54.3293 165.08 54.3293 164.242 54.3458C163.395 54.3623 162.483 54.3788 161.489 54.4035C160.495 54.4282 159.485 54.4612 158.441 54.4859C157.398 54.5189 156.412 54.5519 155.483 54.5931C154.555 54.6343 153.709 54.6673 152.969 54.7003C152.221 54.7333 151.654 54.758 151.26 54.7745C150.537 54.8157 149.74 54.8734 148.877 54.9641C148.015 55.0548 147.234 55.1455 146.552 55.2444L145.55 52.6475C146.437 52.7464 147.382 52.8289 148.393 52.8948C149.403 52.9608 150.348 53.0185 151.235 53.0597C151.843 53.0762 152.681 53.0927 153.75 53.0927C154.818 53.0927 155.968 53.0844 157.192 53.0597C158.416 53.0432 159.649 53.0185 160.873 52.9855C162.097 52.9525 163.174 52.9195 164.094 52.8866L164.086 52.8783ZM169.59 66.9347C168.374 66.877 167.06 66.8275 165.663 66.8028C164.258 66.778 162.87 66.7698 161.481 66.7863C160.101 66.8028 158.786 66.8275 157.537 66.8605C156.288 66.8935 155.229 66.9347 154.341 66.9924C153.635 67.0336 153.142 66.8935 152.854 66.5802C152.575 66.2669 152.427 65.8959 152.427 65.4672V61.172C152.427 60.7433 152.41 60.397 152.369 60.1415C152.328 59.8859 152.221 59.6715 152.049 59.4984C151.876 59.3253 151.613 59.1686 151.268 59.045C150.923 58.9131 150.447 58.7729 149.839 58.6163L150.307 57.5528C150.603 57.594 150.973 57.6435 151.424 57.7012C151.876 57.7589 152.345 57.8248 152.821 57.8908C153.306 57.9567 153.774 58.0227 154.234 58.0804C154.694 58.1381 155.072 58.1876 155.368 58.2288C155.327 58.4514 155.286 58.7894 155.253 59.2593C155.212 59.7292 155.196 60.1579 155.196 60.5289V64.5439C155.196 64.9149 155.253 65.1539 155.368 65.2364C155.483 65.3271 155.746 65.3765 156.165 65.4013C156.658 65.4013 157.258 65.4013 157.981 65.3848C158.696 65.3765 159.468 65.3518 160.306 65.3271C161.144 65.2941 162.007 65.2611 162.911 65.2199C163.814 65.1787 164.694 65.1292 165.565 65.0715C166.427 65.0138 167.241 64.9396 168.005 64.8654C168.769 64.783 169.434 64.7088 170.009 64.6263L169.599 66.9347H169.59Z" fill="#404041"/>
<path d="M188.784 44.255C188.784 43.9582 188.743 43.6944 188.652 43.4553C188.562 43.2162 188.414 43.0019 188.192 42.804C187.978 42.6061 187.674 42.433 187.28 42.2681C186.886 42.1115 186.393 41.9549 185.809 41.7982L186.253 40.7347C187.231 40.8501 188.209 41.0068 189.178 41.1964C190.148 41.386 191.027 41.5756 191.815 41.7735C191.774 41.9466 191.733 42.1692 191.684 42.4248C191.635 42.6803 191.594 42.9359 191.569 43.1915C191.536 43.4471 191.511 43.6861 191.495 43.9005C191.479 44.1148 191.47 44.2797 191.47 44.3704V51.8726C192.037 51.8561 192.596 51.8314 193.146 51.7984C193.697 51.7655 194.239 51.7242 194.765 51.6665V43.0678C194.765 42.4578 194.527 41.9631 194.058 41.5756C193.59 41.1881 192.727 40.8419 191.47 40.5286L191.939 39.4321C192.407 39.4898 192.908 39.5723 193.442 39.6712C193.976 39.7701 194.494 39.8691 195.02 39.968C195.537 40.0669 196.039 40.1659 196.523 40.2648C197 40.3637 197.427 40.4544 197.805 40.5286C197.764 40.7017 197.731 40.9243 197.698 41.1799C197.665 41.4355 197.641 41.691 197.608 41.9466C197.575 42.2022 197.55 42.4413 197.534 42.6556C197.517 42.87 197.509 43.0266 197.509 43.1255V59.4903C197.509 60.1004 197.493 60.7929 197.468 61.5761C197.435 62.351 197.402 63.1342 197.353 63.9257C197.304 64.7171 197.246 65.4673 197.189 66.1846C197.131 66.9018 197.066 67.5119 196.983 67.9983L194.979 68.2621C194.962 67.8911 194.938 67.4377 194.905 66.9183C194.872 66.3989 194.847 65.8301 194.831 65.2365C194.814 64.6429 194.798 64.0246 194.79 63.4063C194.79 62.788 194.773 62.1944 194.773 61.6173V53.3154C194.223 53.3319 193.681 53.3566 193.138 53.3731C192.596 53.3896 192.045 53.4225 191.47 53.4638V58.4268C191.47 59.0369 191.454 59.7294 191.429 60.5126C191.396 61.2875 191.364 62.0707 191.314 62.8622C191.265 63.6536 191.207 64.4121 191.142 65.1376C191.076 65.8631 191.002 66.4731 190.92 66.9678L188.973 67.2069C188.948 66.8359 188.932 66.3824 188.915 65.8631C188.899 65.3437 188.874 64.7831 188.858 64.1977C188.833 63.6041 188.825 63.0023 188.817 62.384C188.817 61.7657 188.8 61.1639 188.8 60.595V56.6378C187.469 57.1489 186.048 57.6436 184.544 58.1135C183.041 58.5834 181.43 58.9874 179.705 59.3254C178.661 59.5233 177.93 59.4161 177.495 59.0121C177.059 58.6082 176.845 57.9321 176.845 56.984V49.0943C176.845 48.7398 176.813 48.4266 176.747 48.1627C176.681 47.8989 176.55 47.6681 176.361 47.4702C176.172 47.2724 175.901 47.0992 175.547 46.9508C175.194 46.8024 174.734 46.6541 174.167 46.4974L174.693 45.4339C175.794 45.607 176.903 45.7225 178.02 45.7554C179.138 45.7967 180.231 45.7884 181.29 45.7307C182.35 45.673 183.377 45.5741 184.38 45.4504C185.382 45.3185 186.311 45.1783 187.181 45.0217L186.705 47.2641C185.333 47.1817 184.076 47.1652 182.925 47.2064C181.775 47.2476 180.674 47.3136 179.614 47.4125V56.3657C179.614 56.7037 179.68 56.9346 179.803 57.0747C179.935 57.2149 180.074 57.2643 180.231 57.2231C183.073 56.8686 185.933 56.2421 188.8 55.3352V44.255H188.784Z" fill="#404041"/>
<path d="M216.242 57.4538C216.242 57.8083 216.234 58.1958 216.21 58.6245C216.193 59.045 216.16 59.4819 216.119 59.9353C216.078 60.3888 216.037 60.8257 215.988 61.2462C215.938 61.6666 215.897 62.0624 215.856 62.4169L213.704 62.7384C213.663 62.3839 213.63 61.9799 213.597 61.5265C213.564 61.073 213.539 60.6196 213.506 60.1662C213.474 59.7128 213.457 59.2923 213.449 58.8966C213.441 58.5009 213.432 58.1711 213.432 57.8908V55.9699C212.611 55.9864 211.797 56.0111 210.992 56.0441C210.187 56.0771 209.431 56.1018 208.725 56.1183C208.018 56.1348 207.385 56.1595 206.827 56.1925C206.268 56.2255 205.832 56.2502 205.512 56.2667C204.789 56.3079 203.992 56.3656 203.129 56.4563C202.267 56.547 201.486 56.6377 200.804 56.7366L199.802 54.1644C200.689 54.2633 201.634 54.3458 202.645 54.4117C203.655 54.4777 204.6 54.5354 205.487 54.5766C205.956 54.5931 206.588 54.6096 207.369 54.6096C208.149 54.6096 209.012 54.6096 209.941 54.5931C210.877 54.5849 211.847 54.5601 212.857 54.5354C213.868 54.5024 214.829 54.4777 215.758 54.4612C216.678 54.4447 217.532 54.42 218.321 54.387C219.11 54.354 219.734 54.3293 220.203 54.3128C221.517 54.2551 222.848 54.1562 224.204 54.0325C225.56 53.9006 226.776 53.7604 227.852 53.6038L227.474 56.0276C227.08 56.0111 226.628 55.9864 226.102 55.9699C225.584 55.9534 225.017 55.9369 224.409 55.9287C223.801 55.9204 223.169 55.9039 222.528 55.8874C221.879 55.871 221.23 55.8545 220.589 55.8545H218.716C217.984 55.8545 217.146 55.8792 216.226 55.9122V57.4456L216.242 57.4538ZM221.221 49.1849C221.46 49.1437 221.673 49.1189 221.871 49.1107C222.068 49.1025 222.24 49.086 222.405 49.0695L221.961 51.1635C221.238 51.1223 220.334 51.0893 219.258 51.0646C218.181 51.0316 217.039 51.0234 215.84 51.0234C214.64 51.0234 213.457 51.0316 212.29 51.0563C211.124 51.0728 210.097 51.0976 209.218 51.114C209.176 51.2707 209.144 51.4191 209.127 51.5592C209.111 51.6994 209.078 51.8395 209.037 51.9714L207.155 52.2353C207.081 51.8643 206.999 51.4108 206.917 50.8915C206.835 50.3721 206.777 49.8527 206.744 49.3415L206.219 44.3785C206.178 44.024 206.136 43.7355 206.087 43.5211C206.038 43.3068 205.947 43.1254 205.824 42.977C205.693 42.8286 205.504 42.705 205.233 42.606C204.97 42.5071 204.616 42.3999 204.189 42.2763L204.658 41.188C205.956 41.3447 207.352 41.4518 208.856 41.5095C210.36 41.5673 211.888 41.592 213.449 41.5673C215.01 41.5508 216.546 41.4931 218.058 41.4189C219.57 41.3364 220.983 41.2375 222.298 41.1221C222.24 41.6332 222.158 42.235 222.059 42.9276C221.961 43.6201 221.862 44.3291 221.764 45.0546C221.665 45.78 221.567 46.5055 221.468 47.2228C221.369 47.94 221.295 48.5913 221.23 49.1849H221.221ZM223.9 67.0583C222.684 67.0006 221.369 66.9512 219.973 66.9264C218.568 66.8935 217.179 66.8935 215.807 66.91C214.435 66.9264 213.128 66.9512 211.896 66.9841C210.664 67.0171 209.595 67.0583 208.716 67.1161C208.01 67.1573 207.517 67.0171 207.229 66.7038C206.942 66.3906 206.802 66.0113 206.802 65.5826V62.219C206.802 61.7821 206.786 61.444 206.744 61.1802C206.703 60.9247 206.597 60.7103 206.424 60.5289C206.251 60.3558 205.989 60.1992 205.643 60.0673C205.298 59.9354 204.822 59.7952 204.214 59.6386L204.682 58.5421C204.978 58.5833 205.348 58.6328 205.8 58.6905C206.251 58.7482 206.72 58.8059 207.196 58.8636C207.681 58.9213 208.149 58.9873 208.61 59.0532C209.07 59.1192 209.448 59.1769 209.743 59.2181C209.702 59.4572 209.661 59.8117 209.628 60.2816C209.587 60.7515 209.571 61.1637 209.571 61.5182V64.6181C209.571 64.9973 209.628 65.2199 209.743 65.3106C209.858 65.4013 210.13 65.4507 210.54 65.4755C211.033 65.5002 211.633 65.5002 212.348 65.4919C213.063 65.4837 213.835 65.459 214.673 65.4342C215.503 65.4013 216.366 65.3683 217.261 65.3188C218.157 65.2694 219.028 65.2116 219.882 65.1539C220.737 65.0962 221.542 65.0303 222.306 64.9643C223.07 64.8984 223.736 64.8077 224.311 64.717L223.9 67.0501V67.0583ZM219.077 43.0759C218.469 43.0595 217.705 43.043 216.785 43.0347C215.864 43.0265 214.911 43.0347 213.942 43.0512C212.972 43.0677 212.044 43.0924 211.157 43.1254C210.269 43.1584 209.571 43.1914 209.037 43.2326L209.365 48.8386C209.382 49.119 209.382 49.3828 209.365 49.6383C210.056 49.6383 210.795 49.6301 211.584 49.6054C212.381 49.5889 213.194 49.5641 214.024 49.5312C214.862 49.4982 215.692 49.4735 216.514 49.457C217.335 49.4405 218.116 49.4075 218.839 49.3663L219.077 43.0759Z" fill="#404041"/>
<path d="M244.794 46.3736H243.142C242.493 46.3736 241.795 46.3818 241.039 46.4065C240.283 46.423 239.503 46.4478 238.697 46.4643C237.892 46.4807 237.12 46.5055 236.372 46.522C235.625 46.5384 234.943 46.5632 234.31 46.5797C233.686 46.5962 233.16 46.6209 232.749 46.6374C232.511 46.6539 232.207 46.6786 231.82 46.7116C231.443 46.7446 231.04 46.7775 230.629 46.8105C230.218 46.8517 229.824 46.8929 229.454 46.9259C229.076 46.9671 228.78 47.0001 228.542 47.0413L227.425 44.5928C227.68 44.6505 228 44.7082 228.394 44.7577C228.789 44.8072 229.191 44.8566 229.602 44.9061C230.013 44.9556 230.416 44.9968 230.81 45.0215C231.204 45.0545 231.533 45.071 231.812 45.071C232.478 45.0545 233.365 45.0298 234.474 44.9968C235.584 44.9638 236.767 44.9143 238.032 44.8484C239.297 44.7824 240.563 44.6917 241.828 44.5846C243.093 44.4774 244.202 44.3372 245.172 44.1559L244.786 46.3653L244.794 46.3736ZM242.707 52.2269C242.707 52.8782 242.551 53.4966 242.239 54.0736C241.926 54.6507 241.491 55.1536 240.94 55.5823C240.39 56.0028 239.741 56.3408 238.985 56.6046C238.229 56.8602 237.424 56.9839 236.553 56.9839C235.682 56.9839 234.885 56.8602 234.137 56.6046C233.39 56.3491 232.741 56.0028 232.182 55.5741C231.623 55.1372 231.188 54.6343 230.867 54.0572C230.555 53.4718 230.399 52.87 230.399 52.2434C230.399 51.5344 230.563 50.8914 230.884 50.3061C231.204 49.729 231.648 49.2178 232.198 48.7809C232.749 48.3522 233.398 48.0142 234.137 47.7751C234.885 47.536 235.69 47.4206 236.553 47.4206C237.416 47.4206 238.287 47.5525 239.043 47.8163C239.798 48.0801 240.448 48.4346 240.998 48.8798C241.548 49.325 241.968 49.8361 242.263 50.4132C242.559 50.9986 242.707 51.6004 242.707 52.2269ZM240.439 43.1006H239.347C238.952 43.1006 238.558 43.1006 238.172 43.1171C237.777 43.1253 237.399 43.1336 237.038 43.1501C236.676 43.1583 236.364 43.1666 236.109 43.1666C235.97 43.1666 235.772 43.1666 235.518 43.1831C235.263 43.1913 234.976 43.2078 234.663 43.2243C234.351 43.2408 234.039 43.2655 233.718 43.2985C233.406 43.3315 233.119 43.3644 232.864 43.3974L231.656 41.122C231.894 41.1797 232.19 41.2374 232.544 41.2951C232.897 41.3528 233.267 41.4106 233.644 41.46C234.022 41.5095 234.4 41.5507 234.762 41.5754C235.123 41.6084 235.436 41.6167 235.69 41.6167C235.929 41.6167 236.249 41.6084 236.66 41.5837C237.071 41.5672 237.523 41.526 237.999 41.4765C238.484 41.427 238.969 41.3776 239.47 41.3116C239.971 41.2539 240.448 41.1962 240.899 41.1385L240.431 43.0841L240.439 43.1006ZM235.789 58.5832C236.808 58.5832 237.958 58.5667 239.232 58.5255C240.505 58.4843 241.779 58.4348 243.044 58.3771C244.309 58.3194 245.509 58.2535 246.651 58.1875C247.793 58.1216 248.729 58.0474 249.477 57.9649C249.42 58.4596 249.379 58.847 249.346 59.1438C249.313 59.4406 249.305 59.7457 249.305 60.0589V63.4556C249.305 64.0244 249.272 64.7004 249.198 65.4671C249.132 66.2339 249.009 66.9511 248.828 67.6271L246.766 68.0146C246.725 67.7755 246.692 67.4952 246.659 67.1572C246.634 66.8192 246.61 66.4729 246.585 66.1102C246.569 65.7475 246.544 65.393 246.528 65.0467C246.511 64.7004 246.495 64.4036 246.495 64.1481V59.7786C245.731 59.7622 244.925 59.7622 244.079 59.7786C243.233 59.7951 242.378 59.8281 241.499 59.8693C240.628 59.9106 239.766 59.96 238.919 60.0342C238.073 60.1002 237.268 60.1661 236.504 60.2238C235.871 60.2651 235.271 60.3228 234.68 60.397C234.088 60.4794 233.472 60.5618 232.823 60.6608L231.673 58.237C231.968 58.2782 232.289 58.3194 232.634 58.3524C232.979 58.3936 233.341 58.4348 233.71 58.4678C234.088 58.509 234.45 58.5338 234.803 58.5585C235.156 58.575 235.477 58.5915 235.772 58.5915L235.789 58.5832ZM233.316 52.095C233.316 52.5485 233.398 52.9772 233.562 53.3894C233.727 53.7934 233.957 54.1479 234.252 54.4529C234.548 54.7579 234.893 54.997 235.28 55.1784C235.674 55.3597 236.093 55.4422 236.545 55.4422C236.997 55.4422 237.391 55.3598 237.785 55.1866C238.18 55.0135 238.525 54.7827 238.812 54.4859C239.108 54.1891 239.338 53.8346 239.503 53.4224C239.667 53.0102 239.749 52.565 239.749 52.0868C239.749 51.6499 239.667 51.2294 239.503 50.8254C239.338 50.4215 239.108 50.0587 238.829 49.7454C238.541 49.4322 238.204 49.1848 237.81 49.0035C237.416 48.8221 236.997 48.7396 236.545 48.7396C235.625 48.7396 234.852 49.0447 234.236 49.663C233.62 50.2731 233.308 51.0892 233.308 52.095H233.316ZM249.535 52.1363C249.535 52.4908 249.518 52.8947 249.494 53.3647C249.461 53.8263 249.428 54.2962 249.379 54.7662C249.329 55.2361 249.28 55.6895 249.231 56.11C249.181 56.5304 249.14 56.8767 249.099 57.1323L247.012 57.429C246.971 57.2312 246.947 56.9756 246.922 56.6623C246.905 56.3491 246.881 56.0193 246.848 55.673C246.815 55.3268 246.799 54.9805 246.79 54.6425C246.782 54.2962 246.774 53.9912 246.774 53.7109V43.0759C246.774 42.4658 246.495 41.9712 245.936 41.5837C245.377 41.1962 244.449 40.8499 243.159 40.5367L243.627 39.4402C244.12 39.4979 244.646 39.5721 245.213 39.6628C245.78 39.7535 246.355 39.8524 246.922 39.9596C247.489 40.0667 248.039 40.1739 248.557 40.2646C249.075 40.3635 249.526 40.446 249.896 40.5037C249.855 40.6768 249.814 40.8994 249.765 41.155C249.715 41.4105 249.674 41.6744 249.65 41.9382C249.617 42.202 249.592 42.4493 249.576 42.6637C249.559 42.878 249.543 43.0347 249.543 43.1336V50.1906C250.389 50.1164 251.342 50.0093 252.402 49.8938C253.462 49.7784 254.432 49.6383 255.319 49.4816L255.023 51.8477C254.686 51.8312 254.292 51.8147 253.832 51.8147H249.551V52.1363H249.535Z" fill="#404041"/>
<path d="M264.307 55.1538C266.09 54.9972 267.799 54.8076 269.426 54.5932C271.053 54.3789 272.606 54.1151 274.076 53.7935V43.0678C274.076 42.4578 273.789 41.9631 273.222 41.5756C272.655 41.1881 271.71 40.8419 270.395 40.5286L270.921 39.4321C271.414 39.4898 271.94 39.564 272.507 39.6547C273.074 39.7454 273.641 39.8443 274.216 39.9515C274.783 40.0587 275.333 40.1659 275.851 40.2565C276.369 40.3555 276.82 40.4379 277.19 40.4956C277.149 40.6688 277.116 40.8914 277.075 41.1469C277.034 41.4025 276.993 41.6663 276.96 41.9301C276.919 42.1939 276.894 42.4413 276.87 42.6556C276.853 42.87 276.837 43.0266 276.837 43.1255V50.8668C277.248 50.8504 277.708 50.8174 278.209 50.7679C278.71 50.7184 279.211 50.6607 279.729 50.603C280.238 50.5453 280.74 50.4794 281.233 50.4134C281.726 50.3475 282.186 50.2733 282.613 50.1908L282.292 52.4992C281.956 52.4827 281.569 52.4662 281.118 52.4662H276.845V55.3352C276.845 55.7886 276.829 56.275 276.804 56.7779C276.771 57.2891 276.738 57.8085 276.705 58.3279C276.664 58.8472 276.615 59.3419 276.541 59.8036C276.475 60.2652 276.41 60.661 276.352 60.999L274.323 61.3205C274.282 61.0897 274.257 60.7599 274.232 60.3477C274.216 59.9355 274.191 59.482 274.158 59.0039C274.126 58.5257 274.109 58.0393 274.101 57.5611C274.093 57.0747 274.084 56.6625 274.084 56.308V55.0961C272.885 55.3352 271.669 55.5578 270.436 55.7804C269.196 55.9947 267.98 56.1926 266.772 56.3575C265.564 56.5224 264.406 56.6708 263.297 56.8027C262.187 56.9346 261.169 57.0335 260.248 57.1159C260.035 57.1324 259.731 57.1572 259.336 57.1902C258.942 57.2231 258.531 57.2561 258.088 57.3056C257.644 57.355 257.208 57.4045 256.765 57.454C256.321 57.5034 255.935 57.5529 255.598 57.6188L254.16 55.195C254.472 55.2363 254.85 55.2692 255.278 55.3105C255.713 55.3517 256.148 55.3847 256.6 55.4176C257.052 55.4506 257.48 55.4671 257.882 55.4754C258.285 55.4836 258.622 55.4918 258.901 55.4918C259.353 55.4754 259.805 55.4506 260.257 55.4341C260.708 55.4176 261.152 55.3929 261.579 55.3764V51.2378C261.579 50.9246 261.555 50.6525 261.522 50.4381C261.481 50.2238 261.382 50.0424 261.226 49.894C261.07 49.7456 260.84 49.622 260.536 49.5148C260.232 49.4076 259.821 49.3004 259.312 49.2015L259.755 48.171C260.084 48.1875 260.454 48.2205 260.856 48.2617C261.259 48.3029 261.678 48.3441 262.105 48.3936C262.541 48.443 262.968 48.4925 263.403 48.5585C263.839 48.6162 264.241 48.6904 264.611 48.7646C264.57 48.9377 264.537 49.1438 264.504 49.3829C264.472 49.622 264.447 49.8528 264.414 50.0919C264.381 50.331 264.365 50.5453 264.34 50.7432C264.324 50.941 264.315 51.0977 264.315 51.2131V55.1703L264.307 55.1538ZM267.249 52.8784C267.347 52.3426 267.446 51.7325 267.544 51.0482C267.643 50.3557 267.733 49.6385 267.807 48.8965C267.889 48.1463 267.955 47.4125 268.013 46.6953C268.07 45.978 268.103 45.3185 268.103 44.7332C266.928 44.7332 265.819 44.7496 264.776 44.7909C263.732 44.8321 262.615 44.898 261.423 44.997C260.84 45.0547 260.158 45.1289 259.41 45.2031C258.654 45.2855 257.915 45.3927 257.184 45.5328L255.861 43.1668C256.641 43.241 257.463 43.3151 258.318 43.3893C259.172 43.4553 259.911 43.4883 260.544 43.4883C262.072 43.4883 263.699 43.4306 265.416 43.3234C267.134 43.2162 268.867 43.0266 270.617 42.7463L271.414 43.4553C271.118 45.1124 270.814 46.72 270.486 48.2864C270.165 49.8528 269.713 51.312 269.147 52.6723L267.265 52.8784H267.249ZM278.644 67.0585C277.428 67.0008 276.163 66.9513 274.849 66.9266C273.534 66.8936 272.244 66.8936 270.979 66.9101C269.713 66.9266 268.506 66.9513 267.355 66.9843C266.205 67.0172 265.203 67.0585 264.34 67.1162C263.65 67.1574 263.157 67.0172 262.853 66.704C262.549 66.3907 262.393 66.0115 262.393 65.5828V62.3922C262.393 61.9635 262.376 61.6173 262.335 61.3617C262.294 61.1061 262.187 60.8918 262.015 60.7104C261.834 60.5373 261.579 60.3807 261.234 60.257C260.889 60.1251 260.421 59.9849 259.838 59.8283L260.339 58.7318C260.61 58.773 260.98 58.8225 261.432 58.8802C261.883 58.9379 262.352 58.9956 262.828 59.0533C263.305 59.111 263.773 59.177 264.225 59.243C264.677 59.3089 265.047 59.3666 265.342 59.4078C265.301 59.6469 265.26 60.0014 265.227 60.4713C265.186 60.9413 265.17 61.3617 265.17 61.708V64.6347C265.17 65.0139 265.227 65.2365 265.351 65.3272C265.466 65.4179 265.753 65.4673 266.205 65.4921C266.928 65.5168 267.857 65.5086 268.974 65.4756C270.091 65.4426 271.258 65.3931 272.466 65.3272C273.674 65.2612 274.857 65.1705 276.024 65.0799C277.19 64.9809 278.201 64.8655 279.039 64.7254L278.661 67.0585H278.644Z" fill="#404041"/>
<path d="M96.7216 76.2671L96.8038 78.0643H96.5901C96.549 77.751 96.4915 77.5202 96.4176 77.3883C96.3026 77.174 96.1465 77.0091 95.9575 76.9101C95.7685 76.803 95.5138 76.7535 95.1934 76.7535H94.1171V82.5986C94.1171 83.0686 94.1663 83.3654 94.2732 83.4808C94.4128 83.6374 94.6347 83.7199 94.9305 83.7199H95.1934V83.926H91.9644V83.7199H92.2355C92.556 83.7199 92.786 83.6209 92.9175 83.4231C92.9996 83.2994 93.0407 83.0273 93.0407 82.5986V76.7535H92.1205C91.7672 76.7535 91.5125 76.7782 91.3646 76.8359C91.1674 76.9101 91.0031 77.042 90.8634 77.2481C90.7238 77.4543 90.6416 77.7263 90.6169 78.0726H90.4033L90.4937 76.2753H96.7216V76.2671Z" fill="#404041"/>
<path d="M98.7915 75.8962V79.672C99.2106 79.2104 99.5392 78.9218 99.7775 78.7899C100.024 78.658 100.262 78.592 100.509 78.592C100.805 78.592 101.051 78.6745 101.265 78.8311C101.478 78.996 101.626 79.2433 101.733 79.5896C101.807 79.8287 101.84 80.2739 101.84 80.9087V82.7389C101.84 83.0686 101.864 83.2912 101.922 83.4067C101.955 83.4973 102.021 83.5715 102.111 83.621C102.201 83.6705 102.366 83.7034 102.604 83.7034V83.9095H100.073V83.7034H100.188C100.427 83.7034 100.591 83.6705 100.689 83.5963C100.78 83.5221 100.846 83.4149 100.887 83.2747C100.895 83.217 100.903 83.0357 100.903 82.7471V80.9169C100.903 80.3481 100.87 79.9853 100.813 79.8039C100.755 79.6308 100.665 79.4989 100.533 79.4082C100.402 79.3175 100.254 79.2763 100.073 79.2763C99.8925 79.2763 99.6953 79.3258 99.4981 79.4247C99.3009 79.5236 99.0627 79.7215 98.7833 80.0183V82.7471C98.7833 83.1016 98.7998 83.3242 98.8408 83.4067C98.8819 83.4891 98.9559 83.5633 99.0627 83.621C99.1695 83.6787 99.3585 83.7117 99.6214 83.7117V83.9178H97.0661V83.7117C97.2962 83.7117 97.4769 83.6787 97.6084 83.6045C97.6823 83.5633 97.7399 83.4973 97.7892 83.3902C97.8302 83.283 97.8549 83.0686 97.8549 82.7471V78.0726C97.8549 77.4791 97.8385 77.1163 97.8138 76.9844C97.7892 76.8525 97.7399 76.7536 97.6823 76.7041C97.6248 76.6546 97.5427 76.6299 97.4523 76.6299C97.3701 76.6299 97.2469 76.6629 97.0743 76.7206L96.9922 76.5227L98.5286 75.8879H98.7915V75.8962Z" fill="#404041"/>
<path d="M103.73 80.6943C103.73 81.461 103.91 82.0629 104.288 82.4998C104.666 82.9367 105.102 83.1511 105.611 83.1511C105.948 83.1511 106.244 83.0604 106.49 82.8708C106.737 82.6812 106.942 82.3679 107.115 81.9145L107.287 82.0299C107.205 82.541 106.983 83.0109 106.597 83.4396C106.219 83.8601 105.743 84.0744 105.176 84.0744C104.559 84.0744 104.025 83.8354 103.59 83.3489C103.146 82.8708 102.933 82.2195 102.933 81.4033C102.933 80.5212 103.163 79.8287 103.606 79.334C104.058 78.8394 104.625 78.592 105.307 78.592C105.882 78.592 106.359 78.7817 106.729 79.1609C107.098 79.5401 107.287 80.0513 107.287 80.6943H103.73ZM103.73 80.3645H106.112C106.096 80.0348 106.055 79.7957 105.997 79.6638C105.907 79.4494 105.767 79.2846 105.578 79.1691C105.389 79.0455 105.2 78.9878 104.995 78.9878C104.683 78.9878 104.403 79.1114 104.165 79.3505C103.919 79.5896 103.779 79.9276 103.738 80.3645H103.73Z" fill="#404041"/>
<path d="M114.855 83.9178L111.905 77.4791V82.5905C111.905 83.0604 111.955 83.3572 112.061 83.4726C112.201 83.6292 112.415 83.7117 112.719 83.7117H112.99V83.9178H110.336V83.7117H110.607C110.928 83.7117 111.158 83.6127 111.297 83.4149C111.379 83.2912 111.42 83.0192 111.42 82.5905V77.5945C111.42 77.2565 111.388 77.0091 111.314 76.8607C111.264 76.7536 111.166 76.6629 111.026 76.5887C110.886 76.5145 110.656 76.4815 110.352 76.4815V76.2754H112.513L115.282 82.2607L118.002 76.2754H120.163V76.4815H119.9C119.571 76.4815 119.341 76.5804 119.209 76.77C119.127 76.8937 119.086 77.1658 119.086 77.5945V82.5905C119.086 83.0604 119.144 83.3572 119.242 83.4726C119.382 83.6292 119.604 83.7117 119.9 83.7117H120.163V83.9178H116.925V83.7117H117.196C117.525 83.7117 117.755 83.6127 117.878 83.4149C117.961 83.2912 118.002 83.0192 118.002 82.5905V77.4791L115.06 83.9178H114.871H114.855Z" fill="#404041"/>
<path d="M125.084 78.7485V81.8813C125.084 82.4832 125.1 82.8459 125.125 82.9778C125.149 83.1097 125.199 83.2004 125.256 83.2581C125.322 83.3076 125.388 83.3323 125.47 83.3323C125.585 83.3323 125.716 83.2993 125.864 83.2334L125.946 83.4312L124.402 84.0661H124.147V82.9696C123.703 83.4477 123.367 83.7528 123.136 83.8764C122.906 84.0001 122.66 84.0661 122.397 84.0661C122.109 84.0661 121.855 83.9836 121.649 83.8187C121.436 83.6538 121.288 83.4395 121.206 83.1757C121.124 82.9119 121.082 82.5409 121.082 82.0627V79.7543C121.082 79.507 121.058 79.3421 121.008 79.2432C120.959 79.1525 120.877 79.0783 120.778 79.0288C120.68 78.9794 120.491 78.9546 120.22 78.9546V78.7485H122.027V82.2111C122.027 82.6893 122.109 83.0026 122.274 83.1592C122.438 83.3076 122.644 83.3818 122.882 83.3818C123.046 83.3818 123.227 83.3323 123.432 83.2334C123.638 83.1345 123.876 82.9366 124.164 82.6563V79.7296C124.164 79.4328 124.106 79.2432 123.999 79.136C123.892 79.0371 123.671 78.9794 123.334 78.9711V78.765H125.084V78.7485Z" fill="#404041"/>
<path d="M129.479 78.592V80.3481H129.298C129.159 79.7957 128.97 79.4165 128.748 79.2186C128.526 79.0207 128.239 78.9218 127.893 78.9218C127.631 78.9218 127.417 78.9878 127.261 79.1279C127.096 79.2681 127.023 79.4247 127.023 79.5896C127.023 79.7957 127.08 79.9771 127.203 80.1337C127.318 80.2903 127.557 80.4552 127.91 80.6284L128.731 81.0323C129.496 81.4033 129.874 81.898 129.874 82.508C129.874 82.978 129.693 83.3572 129.34 83.6457C128.986 83.9343 128.592 84.0744 128.148 84.0744C127.836 84.0744 127.474 84.0167 127.072 83.9013C126.949 83.8601 126.85 83.8436 126.768 83.8436C126.686 83.8436 126.612 83.8931 126.571 83.992H126.382V82.1453H126.571C126.669 82.6729 126.875 83.0686 127.17 83.3325C127.466 83.5963 127.795 83.7364 128.165 83.7364C128.419 83.7364 128.633 83.6622 128.797 83.5056C128.962 83.3489 129.044 83.1676 129.044 82.9532C129.044 82.6894 128.953 82.4751 128.773 82.3019C128.592 82.1206 128.23 81.898 127.688 81.6341C127.146 81.3621 126.784 81.1148 126.62 80.9004C126.447 80.6861 126.365 80.414 126.365 80.0925C126.365 79.6638 126.513 79.3093 126.801 79.029C127.088 78.7404 127.466 78.6003 127.926 78.6003C128.132 78.6003 128.37 78.6415 128.658 78.7322C128.847 78.7899 128.978 78.8146 129.044 78.8146C129.101 78.8146 129.151 78.7981 129.183 78.7734C129.216 78.7487 129.257 78.691 129.307 78.6003H129.487L129.479 78.592Z" fill="#404041"/>
<path d="M131.328 80.6943C131.328 81.461 131.509 82.0629 131.887 82.4998C132.265 82.9367 132.7 83.1511 133.21 83.1511C133.547 83.1511 133.842 83.0604 134.089 82.8708C134.335 82.6812 134.549 82.3679 134.713 81.9145L134.886 82.0299C134.804 82.541 134.582 83.0109 134.196 83.4396C133.818 83.8601 133.341 84.0744 132.774 84.0744C132.158 84.0744 131.624 83.8354 131.189 83.3489C130.745 82.8708 130.531 82.2195 130.531 81.4033C130.531 80.5212 130.761 79.8287 131.205 79.334C131.657 78.8394 132.224 78.592 132.906 78.592C133.481 78.592 133.957 78.7817 134.327 79.1609C134.697 79.5401 134.886 80.0513 134.886 80.6943H131.328ZM131.328 80.3645H133.711C133.695 80.0348 133.653 79.7957 133.596 79.6638C133.506 79.4494 133.366 79.2846 133.177 79.1691C132.996 79.0455 132.799 78.9878 132.594 78.9878C132.281 78.9878 132.002 79.1114 131.755 79.3505C131.509 79.5896 131.369 79.9276 131.328 80.3645Z" fill="#404041"/>
<path d="M139.914 78.7485V81.8813C139.914 82.4832 139.93 82.8459 139.955 82.9778C139.988 83.1097 140.029 83.2004 140.086 83.2581C140.144 83.3076 140.218 83.3323 140.3 83.3323C140.415 83.3323 140.546 83.2993 140.694 83.2334L140.777 83.4312L139.232 84.0661H138.977V82.9696C138.533 83.4477 138.197 83.7528 137.967 83.8764C137.737 84.0001 137.49 84.0661 137.235 84.0661C136.948 84.0661 136.693 83.9836 136.488 83.8187C136.274 83.6538 136.126 83.4395 136.044 83.1757C135.962 82.9119 135.921 82.5409 135.921 82.0627V79.7543C135.921 79.507 135.896 79.3421 135.839 79.2432C135.789 79.1525 135.707 79.0783 135.609 79.0288C135.502 78.9794 135.321 78.9546 135.05 78.9546V78.7485H136.857V82.2111C136.857 82.6893 136.94 83.0026 137.104 83.1592C137.276 83.3076 137.474 83.3818 137.712 83.3818C137.876 83.3818 138.057 83.3323 138.262 83.2334C138.468 83.1345 138.706 82.9366 138.994 82.6563V79.7296C138.994 79.4328 138.936 79.2432 138.829 79.136C138.722 79.0371 138.501 78.9794 138.164 78.9711V78.765H139.914V78.7485Z" fill="#404041"/>
<path d="M142.511 79.6967C142.889 79.3175 143.11 79.1031 143.176 79.0454C143.349 78.9053 143.53 78.7898 143.718 78.7157C143.916 78.6415 144.105 78.592 144.294 78.592C144.614 78.592 144.893 78.6909 145.123 78.8723C145.354 79.0619 145.51 79.334 145.592 79.6885C145.978 79.235 146.307 78.9382 146.57 78.7981C146.841 78.6579 147.112 78.5837 147.391 78.5837C147.67 78.5837 147.909 78.6579 148.122 78.7981C148.336 78.9382 148.5 79.1691 148.624 79.4906C148.706 79.705 148.747 80.0512 148.747 80.5211V82.7471C148.747 83.0686 148.771 83.2912 148.821 83.4148C148.854 83.4973 148.928 83.5715 149.026 83.621C149.125 83.6787 149.289 83.7116 149.519 83.7116V83.9177H146.98V83.7116H147.087C147.309 83.7116 147.481 83.6704 147.605 83.5797C147.687 83.522 147.753 83.4231 147.785 83.2912C147.802 83.2252 147.81 83.0439 147.81 82.7471V80.5211C147.81 80.1007 147.761 79.8039 147.654 79.6308C147.506 79.3917 147.276 79.268 146.956 79.268C146.758 79.268 146.553 79.3175 146.356 79.4164C146.159 79.5153 145.912 79.705 145.633 79.9688V80.0347V80.2738V82.7388C145.633 83.0933 145.649 83.3159 145.69 83.3984C145.731 83.4808 145.805 83.555 145.912 83.6127C146.019 83.6704 146.208 83.7034 146.471 83.7034V83.9095H143.866V83.7034C144.154 83.7034 144.351 83.6704 144.45 83.6045C144.557 83.5385 144.63 83.4313 144.672 83.2994C144.688 83.2335 144.696 83.0521 144.696 82.7388V80.5129C144.696 80.0924 144.639 79.7874 144.507 79.606C144.343 79.3669 144.113 79.2433 143.817 79.2433C143.612 79.2433 143.414 79.301 143.217 79.4082C142.905 79.573 142.667 79.7544 142.494 79.9688V82.7388C142.494 83.0768 142.519 83.2994 142.568 83.3984C142.609 83.4973 142.683 83.5715 142.774 83.6292C142.864 83.6787 143.053 83.7034 143.332 83.7034V83.9095H140.785V83.7034C141.024 83.7034 141.188 83.6787 141.278 83.6292C141.377 83.5797 141.443 83.4973 141.492 83.3901C141.541 83.2829 141.566 83.0603 141.566 82.7471V80.7685C141.566 80.1996 141.549 79.8369 141.517 79.672C141.492 79.5483 141.451 79.4659 141.393 79.4164C141.336 79.3669 141.262 79.3505 141.163 79.3505C141.056 79.3505 140.933 79.3752 140.785 79.4329L140.703 79.2268L142.256 78.592H142.494V79.6885L142.511 79.6967Z" fill="#404041"/>
<path d="M154.991 78.592C155.772 78.592 156.396 78.8888 156.873 79.4824C157.275 79.9936 157.472 80.5706 157.472 81.2302C157.472 81.6919 157.366 82.1618 157.144 82.6399C156.922 83.1099 156.618 83.4726 156.232 83.7117C155.846 83.9508 155.41 84.0744 154.934 84.0744C154.161 84.0744 153.545 83.7612 153.085 83.1428C152.699 82.6235 152.51 82.0299 152.51 81.3868C152.51 80.9169 152.625 80.447 152.863 79.9771C153.093 79.5071 153.405 79.1609 153.791 78.9383C154.178 78.7157 154.58 78.6003 155.008 78.6003L154.991 78.592ZM154.819 78.963C154.621 78.963 154.416 79.0207 154.219 79.1444C154.013 79.2598 153.857 79.4742 153.734 79.771C153.611 80.0678 153.545 80.447 153.545 80.9169C153.545 81.6671 153.693 82.3184 153.989 82.8625C154.284 83.4067 154.679 83.6787 155.164 83.6787C155.525 83.6787 155.829 83.5303 156.059 83.2253C156.297 82.9285 156.412 82.4091 156.412 81.6754C156.412 80.7603 156.215 80.0348 155.821 79.5071C155.558 79.1444 155.221 78.963 154.802 78.963H154.819Z" fill="#404041"/>
<path d="M160.068 79.1525V82.5491C160.068 83.0273 160.126 83.3323 160.224 83.4642C160.364 83.6291 160.545 83.7116 160.783 83.7116H161.251V83.9177H158.178V83.7116H158.408C158.556 83.7116 158.696 83.6703 158.819 83.5961C158.942 83.5219 159.025 83.423 159.074 83.2911C159.123 83.1592 159.148 82.9201 159.148 82.5491V79.1525H158.146V78.7485H159.148V78.4105C159.148 77.8912 159.23 77.4624 159.394 77.0997C159.559 76.7452 159.813 76.4567 160.15 76.2341C160.487 76.0115 160.873 75.9043 161.292 75.9043C161.687 75.9043 162.048 76.0362 162.377 76.2918C162.59 76.4649 162.706 76.6463 162.706 76.8606C162.706 76.976 162.656 77.0832 162.558 77.1822C162.459 77.2811 162.352 77.3305 162.245 77.3305C162.155 77.3305 162.065 77.2976 161.974 77.2399C161.876 77.1822 161.761 77.042 161.621 76.8441C161.481 76.638 161.358 76.4979 161.235 76.4319C161.112 76.366 160.988 76.3248 160.849 76.3248C160.676 76.3248 160.528 76.366 160.405 76.4649C160.282 76.5556 160.2 76.704 160.15 76.8936C160.101 77.0915 160.068 77.5861 160.068 78.394V78.765H161.399V79.169H160.068V79.1525Z" fill="#404041"/>
<path d="M168.293 79.6719L171.103 82.475C171.563 82.9367 171.957 83.2499 172.286 83.4231C172.614 83.5879 172.935 83.6869 173.264 83.7116V83.9177H169.64V83.7116C169.854 83.7116 170.01 83.6786 170.108 83.6044C170.207 83.5302 170.248 83.4478 170.248 83.3571C170.248 83.2664 170.232 83.184 170.191 83.118C170.158 83.0438 170.035 82.9119 169.837 82.7141L167.208 80.1006V82.5657C167.208 82.9531 167.233 83.2087 167.282 83.3324C167.323 83.4313 167.397 83.5055 167.52 83.5715C167.685 83.6621 167.849 83.7034 168.03 83.7034H168.293V83.9095H165.039V83.7034H165.31C165.622 83.7034 165.852 83.6127 166 83.4313C166.091 83.3076 166.132 83.0191 166.132 82.5574V77.6191C166.132 77.2317 166.107 76.9761 166.058 76.8442C166.017 76.7535 165.943 76.6711 165.828 76.6051C165.664 76.5144 165.491 76.4732 165.31 76.4732H165.039V76.2671H168.293V76.4732H168.03C167.857 76.4732 167.685 76.5144 167.52 76.6051C167.405 76.6628 167.323 76.7535 167.282 76.8772C167.241 77.0008 167.216 77.2481 167.216 77.6191V79.9605C167.29 79.8863 167.545 79.6472 167.989 79.2432C169.106 78.221 169.772 77.5367 170.01 77.1987C170.108 77.0503 170.158 76.9184 170.158 76.803C170.158 76.7123 170.117 76.6381 170.043 76.5721C169.961 76.5062 169.829 76.4732 169.64 76.4732H169.468V76.2671H172.269V76.4732C172.105 76.4732 171.957 76.4979 171.817 76.5391C171.678 76.5804 171.513 76.6628 171.324 76.7782C171.127 76.8936 170.889 77.0915 170.601 77.3553C170.519 77.4295 170.141 77.817 169.459 78.5095L168.293 79.6719Z" fill="#404041"/>
<path d="M175.868 78.592C176.649 78.592 177.273 78.8888 177.75 79.4824C178.152 79.9936 178.349 80.5706 178.349 81.2302C178.349 81.6919 178.243 82.1618 178.021 82.6399C177.799 83.1099 177.495 83.4726 177.109 83.7117C176.723 83.9508 176.287 84.0744 175.81 84.0744C175.038 84.0744 174.422 83.7612 173.962 83.1428C173.576 82.6235 173.387 82.0299 173.387 81.3868C173.387 80.9169 173.502 80.447 173.74 79.9771C173.978 79.5071 174.282 79.1609 174.668 78.9383C175.055 78.7157 175.457 78.6003 175.884 78.6003L175.868 78.592ZM175.695 78.963C175.498 78.963 175.301 79.0207 175.096 79.1444C174.899 79.2598 174.734 79.4742 174.611 79.771C174.488 80.0678 174.422 80.447 174.422 80.9169C174.422 81.6671 174.57 82.3184 174.866 82.8625C175.161 83.4067 175.556 83.6787 176.041 83.6787C176.402 83.6787 176.706 83.5303 176.936 83.2253C177.174 82.9285 177.289 82.4091 177.289 81.6754C177.289 80.7603 177.092 80.0348 176.698 79.5071C176.435 79.1444 176.09 78.963 175.679 78.963H175.695Z" fill="#404041"/>
<path d="M180.444 78.592V79.7545C180.872 78.9795 181.315 78.592 181.775 78.592C181.981 78.592 182.153 78.658 182.285 78.7817C182.416 78.9053 182.49 79.0537 182.49 79.2186C182.49 79.367 182.441 79.4907 182.342 79.5896C182.244 79.6885 182.129 79.738 181.997 79.738C181.866 79.738 181.718 79.672 181.554 79.5484C181.389 79.4165 181.274 79.3505 181.192 79.3505C181.126 79.3505 181.052 79.3917 180.97 79.4659C180.798 79.6226 180.625 79.8781 180.444 80.2244V82.6977C180.444 82.9862 180.477 83.2006 180.551 83.3489C180.601 83.4479 180.683 83.5386 180.806 83.6045C180.929 83.6705 181.11 83.7034 181.34 83.7034V83.9096H178.703V83.7034C178.966 83.7034 179.163 83.6622 179.286 83.5798C179.376 83.5221 179.45 83.4231 179.483 83.2912C179.5 83.2253 179.516 83.0439 179.516 82.7471V80.7438C179.516 80.142 179.508 79.7792 179.483 79.672C179.459 79.5566 179.417 79.4742 179.352 79.4247C179.286 79.3752 179.204 79.3505 179.105 79.3505C178.99 79.3505 178.859 79.3752 178.711 79.4329L178.653 79.2268L180.214 78.592H180.453H180.444Z" fill="#404041"/>
<path d="M183.46 80.6943C183.46 81.461 183.64 82.0629 184.018 82.4998C184.396 82.9367 184.832 83.1511 185.341 83.1511C185.678 83.1511 185.974 83.0604 186.22 82.8708C186.467 82.6812 186.68 82.3679 186.845 81.9145L187.017 82.0299C186.943 82.541 186.713 83.0109 186.335 83.4396C185.957 83.8601 185.481 84.0744 184.914 84.0744C184.298 84.0744 183.764 83.8354 183.328 83.3489C182.885 82.8708 182.671 82.2195 182.671 81.4033C182.671 80.5212 182.901 79.8287 183.345 79.334C183.797 78.8394 184.363 78.592 185.045 78.592C185.629 78.592 186.097 78.7817 186.467 79.1609C186.837 79.5401 187.025 80.0513 187.025 80.6943H183.468H183.46ZM183.46 80.3645H185.842C185.826 80.0348 185.785 79.7957 185.727 79.6638C185.637 79.4494 185.489 79.2846 185.308 79.1691C185.128 79.0455 184.93 78.9878 184.725 78.9878C184.413 78.9878 184.133 79.1114 183.887 79.3505C183.64 79.5896 183.501 79.9276 183.46 80.3645Z" fill="#404041"/>
<path d="M190.451 83.1675C189.926 83.5797 189.589 83.8188 189.457 83.8765C189.252 83.9754 189.038 84.0167 188.808 84.0167C188.455 84.0167 188.159 83.893 187.929 83.6457C187.699 83.4066 187.584 83.0768 187.584 82.6811C187.584 82.4255 187.642 82.2112 187.757 82.0298C187.913 81.7742 188.176 81.5352 188.554 81.3043C188.931 81.0817 189.564 80.8014 190.451 80.4799V80.2738C190.451 79.7627 190.369 79.4082 190.205 79.2103C190.041 79.0207 189.802 78.9218 189.49 78.9218C189.252 78.9218 189.063 78.9877 188.923 79.1114C188.784 79.2433 188.71 79.3834 188.71 79.5566V79.8863C188.718 80.0595 188.677 80.1914 188.586 80.2903C188.496 80.381 188.381 80.4304 188.241 80.4304C188.102 80.4304 187.987 80.381 187.896 80.282C187.806 80.1831 187.765 80.0512 187.765 79.8781C187.765 79.5566 187.929 79.2598 188.258 78.9877C188.586 78.7156 189.046 78.5837 189.646 78.5837C190.106 78.5837 190.476 78.6579 190.772 78.8146C190.994 78.93 191.158 79.1114 191.265 79.3587C191.331 79.5236 191.363 79.8533 191.363 80.348V82.104C191.363 82.5987 191.363 82.8955 191.388 83.0109C191.413 83.1181 191.437 83.1923 191.478 83.2335C191.52 83.2664 191.569 83.2912 191.626 83.2912C191.684 83.2912 191.733 83.2829 191.782 83.25C191.865 83.2005 192.013 83.0686 192.234 82.8378V83.151C191.815 83.7116 191.413 84.0002 191.035 84.0002C190.854 84.0002 190.706 83.9342 190.599 83.8106C190.493 83.6869 190.435 83.4643 190.427 83.1593L190.451 83.1675ZM190.451 82.8048V80.8344C189.885 81.057 189.523 81.2219 189.359 81.3126C189.063 81.4775 188.849 81.6506 188.726 81.832C188.595 82.0133 188.537 82.2112 188.537 82.4255C188.537 82.6976 188.619 82.9202 188.775 83.1016C188.94 83.2829 189.12 83.3736 189.334 83.3736C189.622 83.3736 189.991 83.184 190.46 82.813L190.451 82.8048Z" fill="#404041"/>
<path d="M193.976 79.6885C194.576 78.963 195.159 78.592 195.702 78.592C195.981 78.592 196.228 78.6662 196.425 78.8064C196.63 78.9465 196.786 79.1774 196.909 79.5071C196.992 79.7297 197.033 80.076 197.033 80.5459V82.7554C197.033 83.0851 197.057 83.3077 197.115 83.4231C197.156 83.5138 197.222 83.588 197.312 83.6375C197.402 83.687 197.575 83.7199 197.821 83.7199V83.926H195.274V83.7199H195.381C195.62 83.7199 195.784 83.687 195.882 83.6128C195.981 83.5386 196.047 83.4314 196.08 83.2912C196.096 83.2335 196.104 83.0604 196.104 82.7636V80.6448C196.104 80.1749 196.047 79.8369 195.924 79.6226C195.8 79.4082 195.595 79.301 195.307 79.301C194.864 79.301 194.42 79.5484 193.976 80.0348V82.7554C193.976 83.1016 194.001 83.316 194.042 83.4067C194.091 83.5138 194.165 83.5963 194.256 83.6457C194.346 83.6952 194.535 83.7199 194.814 83.7199V83.926H192.267V83.7199H192.382C192.645 83.7199 192.826 83.654 192.916 83.5221C193.007 83.3902 193.056 83.1346 193.056 82.7554V80.8345C193.056 80.2162 193.04 79.8369 193.015 79.6968C192.982 79.5566 192.941 79.4659 192.884 79.4247C192.826 79.3752 192.752 79.3505 192.653 79.3505C192.547 79.3505 192.423 79.3752 192.276 79.4329L192.193 79.2268L193.746 78.592H193.993V79.6885H193.976Z" fill="#404041"/>
<path d="M205.118 83.9178L202.168 77.4791V82.5905C202.168 83.0604 202.217 83.3572 202.324 83.4726C202.464 83.6292 202.686 83.7117 202.981 83.7117H203.252V83.9178H200.599V83.7117H200.87C201.19 83.7117 201.42 83.6127 201.552 83.4149C201.634 83.2912 201.675 83.0192 201.675 82.5905V77.5945C201.675 77.2565 201.642 77.0091 201.568 76.8607C201.519 76.7536 201.42 76.6629 201.281 76.5887C201.141 76.5145 200.911 76.4815 200.607 76.4815V76.2754H202.768L205.537 82.2607L208.256 76.2754H210.417V76.4815H210.154C209.825 76.4815 209.595 76.5804 209.464 76.77C209.382 76.8937 209.341 77.1658 209.341 77.5945V82.5905C209.341 83.0604 209.39 83.3572 209.497 83.4726C209.636 83.6292 209.85 83.7117 210.154 83.7117H210.417V83.9178H207.18V83.7117H207.451C207.78 83.7117 208.01 83.6127 208.133 83.4149C208.215 83.2912 208.256 83.0192 208.256 82.5905V77.4791L205.315 83.9178H205.126H205.118Z" fill="#404041"/>
<path d="M213.351 78.592C214.131 78.592 214.756 78.8888 215.232 79.4824C215.635 79.9936 215.832 80.5706 215.832 81.2302C215.832 81.6919 215.725 82.1618 215.503 82.6399C215.282 83.1099 214.978 83.4726 214.591 83.7117C214.205 83.9508 213.77 84.0744 213.293 84.0744C212.513 84.0744 211.897 83.7612 211.445 83.1428C211.059 82.6235 210.861 82.0299 210.861 81.3868C210.861 80.9169 210.976 80.447 211.215 79.9771C211.453 79.5071 211.757 79.1609 212.143 78.9383C212.521 78.7157 212.932 78.6003 213.359 78.6003L213.351 78.592ZM213.178 78.963C212.981 78.963 212.776 79.0207 212.579 79.1444C212.381 79.2598 212.217 79.4742 212.094 79.771C211.971 80.0678 211.905 80.447 211.905 80.9169C211.905 81.6671 212.053 82.3184 212.348 82.8625C212.644 83.4067 213.039 83.6787 213.523 83.6787C213.885 83.6787 214.189 83.5303 214.419 83.2253C214.657 82.9285 214.772 82.4091 214.772 81.6754C214.772 80.7603 214.575 80.0348 214.181 79.5071C213.91 79.1444 213.573 78.963 213.162 78.963H213.178Z" fill="#404041"/>
<path d="M220.055 83.3324C219.8 83.5962 219.554 83.7858 219.316 83.9012C219.077 84.0167 218.814 84.0744 218.535 84.0744C217.976 84.0744 217.483 83.8353 217.064 83.3654C216.645 82.8955 216.432 82.2854 216.432 81.5434C216.432 80.8014 216.662 80.1254 217.13 79.5071C217.598 78.8888 218.19 78.5837 218.921 78.5837C219.373 78.5837 219.751 78.7321 220.047 79.0207V78.0644C220.047 77.4708 220.03 77.108 220.006 76.9761C219.981 76.8442 219.932 76.7453 219.874 76.6958C219.817 76.6463 219.743 76.6216 219.652 76.6216C219.554 76.6216 219.422 76.6546 219.266 76.7123L219.192 76.5144L220.729 75.8796H220.983V81.8567C220.983 82.4585 221 82.8295 221.025 82.9614C221.049 83.0933 221.098 83.184 221.156 83.2417C221.222 83.2912 221.287 83.3159 221.37 83.3159C221.468 83.3159 221.608 83.2829 221.78 83.217L221.838 83.4148L220.31 84.0496H220.055V83.3077V83.3324ZM220.055 82.9367V80.2738C220.03 80.0182 219.965 79.7874 219.85 79.573C219.735 79.3669 219.587 79.2021 219.406 79.0949C219.225 78.9877 219.036 78.93 218.864 78.93C218.535 78.93 218.239 79.0784 217.984 79.3752C217.648 79.7627 217.475 80.3398 217.475 81.09C217.475 81.8402 217.639 82.4338 217.968 82.8378C218.297 83.2417 218.666 83.4478 219.069 83.4478C219.406 83.4478 219.743 83.2747 220.063 82.9367H220.055Z" fill="#404041"/>
<path d="M222.865 80.6943C222.865 81.461 223.046 82.0629 223.424 82.4998C223.802 82.9367 224.237 83.1511 224.747 83.1511C225.084 83.1511 225.379 83.0604 225.626 82.8708C225.872 82.6812 226.086 82.3679 226.25 81.9145L226.423 82.0299C226.341 82.541 226.119 83.0109 225.733 83.4396C225.355 83.8601 224.878 84.0744 224.311 84.0744C223.695 84.0744 223.161 83.8354 222.726 83.3489C222.282 82.8708 222.068 82.2195 222.068 81.4033C222.068 80.5212 222.298 79.8287 222.742 79.334C223.194 78.8394 223.761 78.592 224.443 78.592C225.018 78.592 225.495 78.7817 225.864 79.1609C226.234 79.5401 226.423 80.0513 226.423 80.6943H222.865ZM222.865 80.3645H225.248C225.232 80.0348 225.191 79.7957 225.133 79.6638C225.043 79.4494 224.903 79.2846 224.714 79.1691C224.533 79.0455 224.336 78.9878 224.131 78.9878C223.818 78.9878 223.539 79.1114 223.293 79.3505C223.046 79.5896 222.906 79.9276 222.865 80.3645Z" fill="#404041"/>
<path d="M228.443 78.592V79.7545C228.871 78.9795 229.314 78.592 229.766 78.592C229.972 78.592 230.144 78.658 230.276 78.7817C230.407 78.9053 230.473 79.0537 230.473 79.2186C230.473 79.367 230.423 79.4907 230.325 79.5896C230.226 79.6885 230.111 79.738 229.98 79.738C229.848 79.738 229.7 79.672 229.536 79.5484C229.372 79.4165 229.248 79.3505 229.175 79.3505C229.109 79.3505 229.035 79.3917 228.953 79.4659C228.78 79.6226 228.608 79.8781 228.427 80.2244V82.6977C228.427 82.9862 228.46 83.2006 228.534 83.3489C228.583 83.4479 228.673 83.5386 228.797 83.6045C228.92 83.6705 229.101 83.7034 229.331 83.7034V83.9096H226.693V83.7034C226.956 83.7034 227.153 83.6622 227.277 83.5798C227.367 83.5221 227.433 83.4231 227.474 83.2912C227.49 83.2253 227.507 83.0439 227.507 82.7471V80.7438C227.507 80.142 227.49 79.7792 227.474 79.672C227.449 79.5566 227.408 79.4742 227.334 79.4247C227.268 79.3752 227.186 79.3505 227.088 79.3505C226.973 79.3505 226.841 79.3752 226.693 79.4329L226.636 79.2268L228.189 78.592H228.427H228.443Z" fill="#404041"/>
<path d="M232.56 79.6885C233.159 78.963 233.743 78.592 234.285 78.592C234.564 78.592 234.811 78.6662 235.008 78.8064C235.214 78.9465 235.37 79.1774 235.493 79.5071C235.575 79.7297 235.616 80.076 235.616 80.5459V82.7554C235.616 83.0851 235.641 83.3077 235.698 83.4231C235.739 83.5138 235.805 83.588 235.895 83.6375C235.986 83.687 236.158 83.7199 236.405 83.7199V83.926H233.858V83.7199H233.965C234.203 83.7199 234.375 83.687 234.466 83.6128C234.564 83.5386 234.63 83.4314 234.663 83.2912C234.679 83.2335 234.688 83.0604 234.688 82.7636V80.6448C234.688 80.1749 234.63 79.8369 234.507 79.6226C234.384 79.4082 234.178 79.301 233.891 79.301C233.447 79.301 233.003 79.5484 232.56 80.0348V82.7554C232.56 83.1016 232.584 83.316 232.625 83.4067C232.683 83.5138 232.749 83.5963 232.839 83.6457C232.929 83.6952 233.118 83.7199 233.398 83.7199V83.926H230.851V83.7199H230.966C231.229 83.7199 231.409 83.654 231.5 83.5221C231.59 83.3902 231.639 83.1346 231.639 82.7554V80.8345C231.639 80.2162 231.623 79.8369 231.598 79.6968C231.574 79.5566 231.533 79.4659 231.467 79.4247C231.409 79.3752 231.327 79.3505 231.229 79.3505C231.122 79.3505 230.999 79.3752 230.851 79.4329L230.769 79.2268L232.321 78.592H232.56V79.6885Z" fill="#404041"/>
<path d="M245.591 81.799L245.772 81.8402L245.123 83.9178H239.224V83.7117H239.511C239.832 83.7117 240.062 83.6045 240.201 83.3984C240.284 83.2747 240.316 83.0027 240.316 82.5657V77.6274C240.316 77.1493 240.259 76.8525 240.16 76.7288C240.012 76.5639 239.799 76.4815 239.511 76.4815H239.224V76.2754H242.674V76.4815C242.272 76.4815 241.984 76.5145 241.82 76.5887C241.656 76.6711 241.549 76.77 241.483 76.8937C241.426 77.0174 241.393 77.2977 241.393 77.7511V82.5575C241.393 82.8708 241.426 83.0851 241.483 83.2005C241.524 83.283 241.598 83.3407 241.688 83.3737C241.779 83.4149 242.075 83.4314 242.568 83.4314H243.126C243.71 83.4314 244.12 83.3901 244.359 83.2995C244.597 83.217 244.811 83.0604 245.008 82.8378C245.205 82.6152 245.402 82.2689 245.591 81.799Z" fill="#404041"/>
<path d="M247.982 78.592V82.7471C247.982 83.0686 248.007 83.283 248.048 83.3902C248.097 83.4973 248.163 83.5798 248.253 83.6292C248.343 83.6787 248.516 83.7117 248.754 83.7117V83.9178H246.257V83.7117C246.511 83.7117 246.676 83.687 246.766 83.6375C246.848 83.588 246.922 83.5056 246.971 83.3984C247.021 83.283 247.045 83.0686 247.045 82.7471V80.752C247.045 80.1914 247.029 79.8287 246.996 79.6638C246.971 79.5401 246.93 79.4577 246.873 79.4165C246.815 79.367 246.741 79.3505 246.643 79.3505C246.536 79.3505 246.413 79.3752 246.257 79.4329L246.183 79.2268L247.735 78.592H247.982ZM247.514 75.8879C247.67 75.8879 247.801 75.9456 247.916 76.0528C248.023 76.16 248.081 76.3001 248.081 76.4568C248.081 76.6134 248.023 76.7536 247.916 76.8608C247.809 76.9762 247.67 77.0339 247.514 77.0339C247.358 77.0339 247.226 76.9762 247.111 76.8608C246.996 76.7453 246.938 76.6134 246.938 76.4568C246.938 76.3001 246.996 76.1682 247.103 76.0528C247.21 75.9456 247.349 75.8879 247.514 75.8879Z" fill="#404041"/>
<path d="M250.726 77.0502V78.7485H251.925V79.1443H250.726V82.4914C250.726 82.8294 250.775 83.052 250.874 83.1674C250.972 83.2829 251.087 83.3406 251.243 83.3406C251.367 83.3406 251.49 83.2993 251.605 83.2251C251.72 83.1509 251.81 83.0355 251.876 82.8871H252.098C251.966 83.2581 251.777 83.5302 251.539 83.7198C251.301 83.9094 251.054 84.0001 250.8 84.0001C250.627 84.0001 250.463 83.9506 250.29 83.8517C250.126 83.7528 250.003 83.6209 249.929 83.4395C249.847 83.2581 249.806 82.9861 249.806 82.6151V79.136H248.992V78.9464C249.198 78.864 249.411 78.7238 249.625 78.526C249.838 78.3281 250.036 78.0973 250.2 77.8252C250.282 77.685 250.405 77.4212 250.561 77.042H250.734L250.726 77.0502Z" fill="#404041"/>
<path d="M253.125 80.6943C253.125 81.461 253.305 82.0629 253.683 82.4998C254.061 82.9367 254.497 83.1511 255.006 83.1511C255.343 83.1511 255.639 83.0604 255.885 82.8708C256.132 82.6812 256.345 82.3679 256.51 81.9145L256.682 82.0299C256.608 82.541 256.378 83.0109 256 83.4396C255.622 83.8601 255.146 84.0744 254.579 84.0744C253.963 84.0744 253.429 83.8354 252.993 83.3489C252.55 82.8708 252.336 82.2195 252.336 81.4033C252.336 80.5212 252.558 79.8287 253.018 79.334C253.47 78.8394 254.037 78.592 254.719 78.592C255.294 78.592 255.77 78.7817 256.14 79.1609C256.51 79.5401 256.699 80.0513 256.699 80.6943H253.141H253.125ZM253.125 80.3645H255.507C255.491 80.0348 255.45 79.7957 255.392 79.6638C255.302 79.4494 255.162 79.2846 254.973 79.1691C254.793 79.0455 254.595 78.9878 254.39 78.9878C254.078 78.9878 253.807 79.1114 253.552 79.3505C253.305 79.5896 253.166 79.9276 253.125 80.3645Z" fill="#404041"/>
<path d="M258.704 78.592V79.7545C259.139 78.9795 259.575 78.592 260.026 78.592C260.232 78.592 260.404 78.658 260.536 78.7817C260.667 78.9053 260.741 79.0537 260.741 79.2186C260.741 79.367 260.692 79.4907 260.593 79.5896C260.495 79.6885 260.38 79.738 260.24 79.738C260.1 79.738 259.961 79.672 259.796 79.5484C259.632 79.4165 259.517 79.3505 259.435 79.3505C259.369 79.3505 259.295 79.3917 259.213 79.4659C259.049 79.6226 258.868 79.8781 258.687 80.2244V82.6977C258.687 82.9862 258.72 83.2006 258.794 83.3489C258.843 83.4479 258.934 83.5386 259.057 83.6045C259.18 83.6705 259.361 83.7034 259.591 83.7034V83.9096H256.954V83.7034C257.217 83.7034 257.414 83.6622 257.537 83.5798C257.627 83.5221 257.693 83.4231 257.734 83.2912C257.751 83.2253 257.767 83.0439 257.767 82.7471V80.7438C257.767 80.142 257.751 79.7792 257.734 79.672C257.709 79.5566 257.668 79.4742 257.603 79.4247C257.537 79.3752 257.455 79.3505 257.356 79.3505C257.241 79.3505 257.11 79.3752 256.962 79.4329L256.904 79.2268L258.465 78.592H258.704Z" fill="#404041"/>
<path d="M263.774 83.1675C263.248 83.5797 262.911 83.8188 262.78 83.8765C262.574 83.9754 262.361 84.0167 262.13 84.0167C261.777 84.0167 261.481 83.893 261.251 83.6457C261.021 83.4066 260.906 83.0768 260.906 82.6811C260.906 82.4255 260.964 82.2112 261.071 82.0298C261.227 81.7742 261.49 81.5352 261.876 81.3043C262.254 81.0817 262.886 80.8014 263.774 80.4799V80.2738C263.774 79.7627 263.692 79.4082 263.527 79.2103C263.363 79.0207 263.125 78.9218 262.821 78.9218C262.582 78.9218 262.393 78.9877 262.262 79.1114C262.122 79.2433 262.048 79.3834 262.048 79.5566V79.8863C262.057 80.0595 262.015 80.1914 261.925 80.2903C261.835 80.381 261.72 80.4304 261.58 80.4304C261.44 80.4304 261.325 80.381 261.243 80.282C261.153 80.1831 261.112 80.0512 261.112 79.8781C261.112 79.5566 261.276 79.2598 261.605 78.9877C261.933 78.7156 262.393 78.5837 262.993 78.5837C263.453 78.5837 263.823 78.6579 264.119 78.8146C264.341 78.93 264.505 79.1114 264.604 79.3587C264.669 79.5236 264.702 79.8533 264.702 80.348V82.104C264.702 82.5987 264.71 82.8955 264.727 83.0109C264.743 83.1181 264.776 83.1923 264.825 83.2335C264.866 83.2664 264.916 83.2912 264.973 83.2912C265.031 83.2912 265.088 83.2829 265.129 83.25C265.212 83.2005 265.359 83.0686 265.581 82.8378V83.151C265.162 83.7116 264.76 84.0002 264.382 84.0002C264.193 84.0002 264.053 83.9342 263.946 83.8106C263.839 83.6869 263.782 83.4643 263.774 83.1593V83.1675ZM263.774 82.8048V80.8344C263.207 81.057 262.845 81.2219 262.673 81.3126C262.377 81.4775 262.163 81.6506 262.04 81.832C261.917 82.0133 261.851 82.2112 261.851 82.4255C261.851 82.6976 261.933 82.9202 262.089 83.1016C262.254 83.2829 262.434 83.3736 262.648 83.3736C262.936 83.3736 263.305 83.184 263.774 82.813V82.8048Z" fill="#404041"/>
<path d="M267.29 77.0502V78.7485H268.49V79.1443H267.29V82.4914C267.29 82.8294 267.34 83.052 267.43 83.1674C267.529 83.2829 267.652 83.3406 267.8 83.3406C267.923 83.3406 268.038 83.2993 268.161 83.2251C268.276 83.1509 268.367 83.0355 268.432 82.8871H268.654C268.523 83.2581 268.342 83.5302 268.095 83.7198C267.857 83.9094 267.611 84.0001 267.356 84.0001C267.183 84.0001 267.019 83.9506 266.847 83.8517C266.682 83.7528 266.559 83.6209 266.485 83.4395C266.403 83.2581 266.37 82.9861 266.37 82.6151V79.136H265.557V78.9464C265.762 78.864 265.976 78.7238 266.189 78.526C266.403 78.3281 266.6 78.0973 266.764 77.8252C266.855 77.685 266.97 77.4212 267.126 77.042H267.298L267.29 77.0502Z" fill="#404041"/>
<path d="M273.337 78.7485V81.8813C273.337 82.4832 273.353 82.8459 273.378 82.9778C273.411 83.1097 273.452 83.2004 273.509 83.2581C273.567 83.3076 273.641 83.3323 273.723 83.3323C273.838 83.3323 273.969 83.2993 274.117 83.2334L274.199 83.4312L272.663 84.0661H272.408V82.9696C271.965 83.4477 271.628 83.7528 271.398 83.8764C271.168 84.0001 270.921 84.0661 270.658 84.0661C270.371 84.0661 270.116 83.9836 269.91 83.8187C269.697 83.6538 269.549 83.4395 269.467 83.1757C269.385 82.9119 269.344 82.5409 269.344 82.0627V79.7543C269.344 79.507 269.319 79.3421 269.261 79.2432C269.212 79.1525 269.13 79.0783 269.031 79.0288C268.925 78.9794 268.744 78.9546 268.473 78.9546V78.7485H270.28V82.2111C270.28 82.6893 270.362 83.0026 270.527 83.1592C270.691 83.3076 270.896 83.3818 271.135 83.3818C271.299 83.3818 271.48 83.3323 271.685 83.2334C271.891 83.1345 272.129 82.9366 272.416 82.6563V79.7296C272.416 79.4328 272.367 79.2432 272.26 79.136C272.154 79.0371 271.932 78.9794 271.595 78.9711V78.765H273.345L273.337 78.7485Z" fill="#404041"/>
<path d="M275.917 78.592V79.7545C276.352 78.9795 276.788 78.592 277.24 78.592C277.445 78.592 277.618 78.658 277.749 78.7817C277.881 78.9053 277.955 79.0537 277.955 79.2186C277.955 79.367 277.905 79.4907 277.807 79.5896C277.708 79.6885 277.593 79.738 277.462 79.738C277.33 79.738 277.182 79.672 277.018 79.5484C276.854 79.4165 276.73 79.3505 276.656 79.3505C276.591 79.3505 276.517 79.3917 276.435 79.4659C276.262 79.6226 276.089 79.8781 275.909 80.2244V82.6977C275.909 82.9862 275.942 83.2006 276.016 83.3489C276.065 83.4479 276.147 83.5386 276.27 83.6045C276.393 83.6705 276.574 83.7034 276.804 83.7034V83.9096H274.167V83.7034C274.43 83.7034 274.627 83.6622 274.75 83.5798C274.841 83.5221 274.906 83.4231 274.947 83.2912C274.964 83.2253 274.98 83.0439 274.98 82.7471V80.7438C274.98 80.142 274.964 79.7792 274.947 79.672C274.923 79.5566 274.882 79.4742 274.808 79.4247C274.742 79.3752 274.66 79.3505 274.561 79.3505C274.446 79.3505 274.315 79.3752 274.167 79.4329L274.109 79.2268L275.662 78.592H275.901H275.917Z" fill="#404041"/>
<path d="M278.933 80.6943C278.933 81.461 279.113 82.0629 279.491 82.4998C279.869 82.9367 280.305 83.1511 280.814 83.1511C281.151 83.1511 281.447 83.0604 281.693 82.8708C281.94 82.6812 282.153 82.3679 282.318 81.9145L282.49 82.0299C282.408 82.541 282.186 83.0109 281.808 83.4396C281.43 83.8601 280.954 84.0744 280.387 84.0744C279.771 84.0744 279.237 83.8354 278.801 83.3489C278.358 82.8708 278.136 82.2195 278.136 81.4033C278.136 80.5212 278.366 79.8287 278.818 79.334C279.27 78.8394 279.837 78.592 280.518 78.592C281.094 78.592 281.57 78.7817 281.94 79.1609C282.31 79.5401 282.499 80.0513 282.499 80.6943H278.941H278.933ZM278.933 80.3645H281.315C281.299 80.0348 281.258 79.7957 281.2 79.6638C281.102 79.4494 280.97 79.2846 280.781 79.1691C280.601 79.0455 280.403 78.9878 280.198 78.9878C279.886 78.9878 279.606 79.1114 279.36 79.3505C279.113 79.5896 278.974 79.9276 278.933 80.3645Z" fill="#404041"/>
</svg>
