<svg width="204" height="201" viewBox="0 0 204 201" fill="none" xmlns="http://www.w3.org/2000/svg">
<g filter="url(#filter0_d_21_28871)">
<rect x="6" y="4" width="192" height="189" rx="94.5" fill="#FCFCFC" fill-opacity="0.51" shape-rendering="crispEdges"/>
<path d="M82.6485 122.08L82.6379 122.086L82.6276 122.092C81.7537 122.599 80.6973 122.604 79.8581 122.268C79.0075 121.927 78.5 121.298 78.5 120.623V77.3766C78.5 76.7019 79.0075 76.0727 79.8581 75.7319C80.6973 75.3957 81.7537 75.4006 82.6276 75.9081L82.6384 75.9144L82.6495 75.9201L124.354 97.4247L124.359 97.4269C125.176 97.8384 125.5 98.4299 125.5 98.9406C125.5 99.4513 125.176 100.043 124.359 100.454L124.359 100.454L124.353 100.457L82.6485 122.08Z" fill="#171719" stroke="#171719"/>
</g>
<defs>
<filter id="filter0_d_21_28871" x="0.5" y="0.7" width="203" height="200" filterUnits="userSpaceOnUse" color-interpolation-filters="sRGB">
<feFlood flood-opacity="0" result="BackgroundImageFix"/>
<feColorMatrix in="SourceAlpha" type="matrix" values="0 0 0 0 0 0 0 0 0 0 0 0 0 0 0 0 0 0 127 0" result="hardAlpha"/>
<feOffset dy="2.2"/>
<feGaussianBlur stdDeviation="2.75"/>
<feComposite in2="hardAlpha" operator="out"/>
<feColorMatrix type="matrix" values="0 0 0 0 0 0 0 0 0 0 0 0 0 0 0 0 0 0 0.1 0"/>
<feBlend mode="normal" in2="BackgroundImageFix" result="effect1_dropShadow_21_28871"/>
<feBlend mode="normal" in="SourceGraphic" in2="effect1_dropShadow_21_28871" result="shape"/>
</filter>
</defs>
</svg>
