<svg width="128" height="128" viewBox="0 0 128 128" fill="none" xmlns="http://www.w3.org/2000/svg">
<path d="M55.7999 16H46.6921C44.6534 16 43 18.5323 43 21.6549V106.345C43 109.467 44.6534 112 46.6921 112H55.7999C57.8387 112 59.4921 109.468 59.4921 106.345V21.6549C59.4922 18.5323 57.8388 16 55.7999 16Z" fill="white"/>
<path d="M80.9054 16H71.7976C69.759 16 68.1055 18.5323 68.1055 21.6549V106.345C68.1055 109.467 69.7588 112 71.7976 112H80.9054C82.944 112 84.5975 109.468 84.5975 106.345V21.6549C84.5975 18.5323 82.9442 16 80.9054 16Z" fill="white"/>
</svg>
