<svg width="40" height="40" viewBox="0 0 40 40" fill="none" xmlns="http://www.w3.org/2000/svg">
<path d="M23.026 3.95924L23.026 3.95926C23.4183 4.15799 23.6654 4.56026 23.6654 4.99993V34.9999C23.6654 35.4396 23.4182 35.8419 23.0261 36.0406L23.026 36.0406C22.6339 36.2393 22.1632 36.2007 21.8087 35.9408L21.8087 35.9407L9.66781 27.0374L9.5601 26.9584L9.42734 26.9437L5.38159 26.4942L5.3816 26.4941L5.37519 26.4935C3.00003 26.2605 1.33203 24.23 1.33203 21.9999V17.9999C1.33203 15.6457 3.1228 13.7363 5.37359 13.5066L5.37359 13.5066L5.37805 13.5062L9.42735 13.0562L9.5601 13.0415L9.66781 12.9625L21.8087 4.05913C21.8087 4.05912 21.8087 4.05912 21.8087 4.05911C22.1633 3.79912 22.6339 3.76054 23.026 3.95924ZM21.332 8.28895V7.30224L20.5363 7.88574L10.6886 15.1074C10.5239 15.2282 10.3305 15.3036 10.1276 15.3261L10.1275 15.3261L5.62753 15.8261L5.62726 15.8262L5.61181 15.8279C4.53371 15.9372 3.66536 16.8596 3.66536 17.9999V21.9999C3.66536 23.1036 4.49536 24.0647 5.60724 24.1716C5.60793 24.1717 5.60862 24.1718 5.60931 24.1718L5.62753 24.1737L5.63184 24.1742L10.1275 24.6737L10.1276 24.6737C10.3304 24.6962 10.5239 24.7717 10.6886 24.8925L20.5363 32.1141L21.332 32.6976V31.7109V8.28895ZM27.6766 12.347L27.6767 12.347C28.1752 11.939 28.9103 12.0124 29.3184 12.5112C30.9795 14.5416 31.9987 17.1329 31.9987 19.9999C31.9987 22.8575 30.9857 25.5341 29.3184 27.5722C28.9102 28.0708 28.1752 28.1442 27.6767 27.7363C27.1778 27.3281 27.1044 26.5931 27.5123 26.0946C28.8451 24.4657 29.6654 22.309 29.6654 19.9999C29.6654 17.7004 28.8513 15.6251 27.5124 13.9887C27.1044 13.4901 27.1779 12.755 27.6766 12.347ZM32.126 7.30756L32.126 7.30752C32.6003 6.8716 33.3384 6.90274 33.7744 7.3772C36.7995 10.6692 38.6654 15.1154 38.6654 19.9999C38.6654 24.8845 36.7995 29.3305 33.7744 32.6226L34.1425 32.9609L33.7744 32.6226C33.3384 33.0971 32.6004 33.1282 32.126 32.6923L32.126 32.6923C31.6515 32.2563 31.6204 31.5183 32.0563 31.0439L32.0564 31.0439C34.6979 28.1693 36.332 24.282 36.332 19.9999C36.332 15.7178 34.6979 11.8306 32.0564 8.95599L31.6882 9.2943L32.0564 8.95598C31.6204 8.48153 31.6515 7.74351 32.126 7.30756Z" fill="#FCFCFC" stroke="#FCFCFC"/>
</svg>
